<?xml version="1.0" standalone="no"?>
<!DOCTYPE svg PUBLIC "-//W3C//DTD SVG 20010904//EN"
 "http://www.w3.org/TR/2001/REC-SVG-20010904/DTD/svg10.dtd">
<svg version="1.0" xmlns="http://www.w3.org/2000/svg"
 width="2000.000000pt" height="2000.000000pt" viewBox="0 0 2000.000000 2000.000000"
 preserveAspectRatio="xMidYMid meet">
<metadata>
Created by potrace 1.11, written by Peter Selinger 2001-2013
</metadata>
<g transform="translate(0.000000,2000.000000) scale(0.100000,-0.100000)"
fill="#000000" stroke="none">
<path d="M310 19424 c-138 -42 -243 -145 -288 -279 -24 -70 -23 -195 1 -260 8
-22 83 -179 167 -350 84 -170 208 -422 275 -560 151 -308 357 -728 544 -1107
569 -1160 823 -1676 1061 -2163 65 -132 187 -382 272 -555 393 -797 458 -930
568 -1155 210 -428 374 -764 535 -1090 86 -176 212 -432 280 -570 67 -137 191
-389 275 -560 84 -170 208 -422 275 -560 67 -137 186 -378 263 -535 160 -327
358 -730 542 -1105 70 -143 196 -399 280 -570 84 -170 210 -427 280 -570 70
-143 189 -386 265 -540 76 -154 195 -397 265 -540 70 -143 196 -399 280 -570
84 -170 206 -420 272 -555 66 -135 186 -378 265 -540 80 -162 201 -407 268
-545 67 -137 191 -389 275 -560 84 -170 208 -422 275 -560 68 -137 194 -394
280 -570 87 -176 207 -421 267 -545 182 -372 276 -560 315 -624 115 -191 288
-368 483 -493 116 -75 342 -171 443 -189 17 -2 33 -6 36 -8 3 -2 28 -7 55 -10
27 -4 54 -10 59 -13 15 -9 327 -12 392 -3 360 48 649 186 888 423 93 93 124
131 201 247 60 91 103 175 444 870 82 168 208 424 280 570 71 146 194 396 272
555 78 160 205 418 282 575 77 157 196 398 263 535 180 367 373 759 542 1105
83 168 209 424 280 570 72 146 195 396 273 555 78 160 200 407 270 550 70 143
196 400 280 570 236 479 577 1173 820 1670 150 306 397 808 558 1135 69 140
126 257 127 260 1 3 68 140 149 305 82 165 197 399 256 520 59 121 181 369
270 550 89 182 220 447 290 590 70 143 192 391 270 550 78 160 198 403 265
540 67 138 189 385 270 550 81 165 209 426 285 580 76 154 202 411 280 570 78
160 198 403 265 540 67 138 191 390 275 560 84 171 210 427 280 570 70 143
193 393 272 555 80 162 198 403 262 535 64 132 121 247 126 255 6 8 14 24 19
35 5 11 62 128 127 260 l117 240 1 75 c0 88 -24 146 -82 205 -34 34 -50 43
-125 74 -35 14 -453 15 -527 1 -85 -16 -156 -54 -218 -117 -63 -63 -30 1 -472
-898 -103 -209 -267 -542 -365 -740 -98 -198 -249 -504 -335 -680 -87 -176
-249 -504 -360 -730 -259 -524 -520 -1054 -720 -1460 -329 -669 -494 -1003
-690 -1400 -111 -225 -271 -549 -355 -720 -84 -170 -237 -481 -340 -690 -103
-209 -265 -537 -360 -730 -95 -192 -256 -519 -357 -725 -102 -206 -261 -528
-353 -715 -92 -187 -249 -504 -348 -705 -99 -201 -257 -522 -352 -715 -164
-334 -318 -645 -750 -1520 -242 -490 -290 -565 -474 -743 -211 -204 -488 -341
-798 -393 -102 -17 -348 -19 -450 -3 -359 57 -636 197 -875 443 -173 178 -161
155 -806 1461 -129 261 -326 660 -437 885 -111 226 -297 601 -413 835 -115
234 -309 625 -430 870 -305 617 -609 1233 -842 1705 -109 220 -298 603 -420
850 -122 248 -318 644 -435 880 -117 237 -310 628 -430 870 -120 242 -311 629
-425 860 -453 916 -617 1249 -845 1710 -131 264 -329 665 -440 890 -612 1240
-622 1259 -666 1307 -54 56 -124 99 -204 121 -55 16 -183 17 -1600 16 -1283
-1 -1548 -3 -1585 -15z"/>
</g>
</svg>
